PathFileType	4	(X/Y/Z)	D:\telocate\uwb04-Unnamed.trc
DataRate	CameraRate	NumFrames	NumMarkers	Units	OrigDataRate	OrigDataStartFrame	OrigNumFrames
100.00	100.00	     224	0	mm	100.00	1	     10016
Frame#	Time	
		

1	0.000	-1165.27771	-199.94226	1220.03430	
2	0.010	-1165.56897	-199.55194	1219.97571	
3	0.020	-1165.62097	-199.35989	1219.89624	
4	0.030	-1165.67480	-198.71901	1219.87170	
5	0.040	-1165.73962	-198.49496	1219.88464	
6	0.050	-1165.89734	-198.30875	1219.90039	
7	0.060	-1167.95020	-198.36145	1219.93494	
8	0.070	-1167.98999	-198.23474	1219.98877	
9	0.080	-1167.99097	-198.00928	1219.75928	
10	0.090	-1166.14429	-197.63873	1219.68835	
11	0.100	-1166.15198	-197.20319	1219.35474	
12	0.110	-1166.34668	-196.93529	1219.53503	
13	0.120	-1166.46753	-196.79811	1219.73950	
14	0.130	-1166.26794	-196.33875	1219.45129	
15	0.140	-1166.09119	-196.11646	1219.70410	
16	0.150	-1165.92236	-195.61285	1219.75891	
17	0.160	-1166.10242	-195.45207	1219.81506	
18	0.170	-1165.86194	-195.15504	1219.61279	
19	0.180	-1165.81604	-194.69574	1219.59875	
20	0.190	-1165.17615	-194.05203	1219.01501	
21	0.200	-1165.25232	-193.61374	1218.97961	
22	0.210	-1165.26794	-193.46950	1218.89575	
23	0.220	-1165.40674	-193.43115	1218.87268	
24	0.230	-1165.54382	-193.34509	1219.08936	
25	0.240	-1165.53455	-192.78029	1219.18921	
26	0.250	-1165.56628	-192.41472	1219.18787	
27	0.260	-1165.28540	-191.54050	1219.01196	
28	0.270	-1165.36841	-191.05052	1218.88171	
29	0.280	-1165.32727	-190.83720	1218.97839	
30	0.290	-1165.30042	-190.59639	1219.03552	
31	0.300	-1165.45386	-190.36937	1219.00916	
32	0.310	-1165.45740	-190.22054	1218.96765	
33	0.320	-1165.77161	-189.89462	1218.94861	
34	0.330	-1165.61633	-189.52122	1218.78064	
35	0.340	-1165.73547	-188.98213	1218.61438	
36	0.350	-1166.12756	-188.67055	1218.75293	
37	0.360	-1166.83167	-187.98134	1218.81470	
38	0.370	-1167.21289	-187.41400	1218.95825	
39	0.380	-1167.60962	-187.10329	1219.28552	
40	0.390	-1167.60620	-186.76187	1219.32593	
41	0.400	-1167.36243	-186.61340	1219.29126	
42	0.410	-1166.88843	-185.63669	1218.62170	
43	0.420	-1167.01978	-185.31535	1218.78015	
44	0.430	-1166.01013	-184.11134	1218.52844	
45	0.440	-1165.49133	-183.66437	1218.44666	
46	0.450	-1165.00146	-183.22749	1218.67749	
47	0.460	-1164.76318	-182.90294	1218.55518	
48	0.470	-1164.32959	-182.45859	1218.71021	
49	0.480	-1164.28955	-181.97855	1218.81067	
50	0.490	-1164.02637	-181.46216	1218.81067	
51	0.500	-1163.94702	-181.15703	1218.92554	
52	0.510	-1163.74634	-180.71585	1218.82239	
53	0.520	-1163.80408	-180.41751	1218.93347	
54	0.530	-1163.65320	-179.95648	1218.87000	
55	0.540	-1163.28967	-179.62717	1218.90161	
56	0.550	-1163.11133	-179.56062	1219.01196	
57	0.560	-1162.79724	-179.13747	1218.91785	
58	0.570	-1162.39746	-177.91431	1218.62012	
59	0.580	-1162.81799	-177.64229	1218.84204	
60	0.590	-1162.66064	-177.26837	1218.77502	
61	0.600	-1162.66980	-176.93314	1218.74634	
62	0.610	-1162.63916	-176.60590	1218.85522	
63	0.620	-1162.59338	-176.33441	1218.85974	
64	0.630	-1162.68213	-176.05045	1218.63159	
65	0.640	-1162.30029	-175.90735	1218.57349	
66	0.650	-1162.35327	-175.79053	1218.50403	
67	0.660	-1162.69128	-175.21873	1218.35461	
68	0.670	-1162.93030	-174.96768	1218.21240	
69	0.680	-1163.08228	-174.84927	1218.13843	
70	0.690	-1163.22058	-174.71187	1218.11902	
71	0.700	-1163.33191	-174.28342	1217.99670	
72	0.710	-1163.61292	-174.06178	1217.96375	
73	0.720	-1163.76404	-173.72386	1217.86987	
74	0.730	-1163.87634	-173.29080	1217.86487	
75	0.740	-1163.67896	-173.07747	1217.91650	
76	0.750	-1163.82544	-172.76163	1218.01624	
77	0.760	-1163.69714	-172.73235	1218.01355	
78	0.770	-1163.55859	-172.47641	1217.98047	
79	0.780	-1163.42944	-172.11592	1217.93396	
80	0.790	-1163.31409	-171.83490	1217.84570	
81	0.800	-1163.41089	-171.85664	1218.15918	
82	0.810	-1163.07385	-171.32332	1218.04626	
83	0.820	-1162.81897	-170.35399	1217.93481	
84	0.830	-1162.65601	-170.04337	1217.80981	
85	0.840	-1162.95251	-169.53670	1217.98108	
86	0.850	-1162.93677	-169.15327	1218.08069	
87	0.860	-1162.98230	-168.92505	1218.04285	
88	0.870	-1162.61169	-168.25227	1218.12415	
89	0.880	-1162.65356	-167.64217	1218.01062	
90	0.890	-1162.69702	-166.86827	1217.99048	
91	0.900	-1162.62622	-166.66872	1218.02026	
92	0.910	-1162.98499	-166.33403	1218.01489	
93	0.920	-1163.08789	-166.14761	1217.94641	
94	0.930	-1163.75635	-166.12759	1218.26294	
95	0.940	-1164.00085	-165.81740	1217.91467	
96	0.950	-1164.76648	-165.74297	1218.03674	
97	0.960	-1164.81384	-165.30067	1218.03601	
98	0.970	-1165.03687	-165.09331	1218.06970	
99	0.980	-1165.07642	-164.79144	1217.91150	
100	0.990	-1165.16260	-163.62488	1217.64087	
101	1.000	-1165.33484	-163.34406	1217.55652	
102	1.010	-1165.45374	-163.03113	1217.58606	
103	1.020	-1165.70337	-162.45154	1217.68677	
104	1.030	-1165.79358	-161.94896	1217.71973	
105	1.040	-1166.02869	-161.86935	1217.74646	
106	1.050	-1166.18909	-161.61111	1217.68604	
107	1.060	-1166.16040	-161.24945	1217.29907	
108	1.070	-1166.21704	-161.27428	1217.42322	
109	1.080	-1166.18079	-161.27551	1217.43018	
110	1.090	-1166.17578	-161.23592	1217.43005	
111	1.100	-1166.27588	-161.15935	1217.48364	
112	1.110	-1166.27368	-160.94185	1217.40356	
113	1.120	-1166.23694	-160.70926	1217.20117	
114	1.130	-1166.52356	-160.73743	1217.40344	
115	1.140	-1166.42200	-160.71611	1217.32666	
116	1.150	-1166.61633	-160.46181	1217.49512	
117	1.160	-1166.66919	-160.45030	1217.56860	
118	1.170	-1166.51697	-160.43939	1217.42908	
119	1.180	-1166.51953	-160.30469	1217.43262	
120	1.190	-1166.65088	-160.23073	1217.51001	
121	1.200	-1166.77161	-160.11934	1217.32605	
122	1.210	-1166.91431	-160.09013	1217.38928	
123	1.220	-1166.94031	-159.90392	1217.34875	
124	1.230	-1166.92834	-159.80325	1217.27478	
125	1.240	-1167.01465	-159.75998	1217.24841	
126	1.250	-1167.04956	-159.70035	1217.23547	
127	1.260	-1167.16406	-159.57068	1217.27478	
128	1.270	-1167.22632	-159.49307	1217.24060	
129	1.280	-1167.18591	-159.45897	1217.18445	
130	1.290	-1166.99438	-159.45074	1217.17896	
131	1.300	-1167.01172	-159.39384	1217.19629	
132	1.310	-1166.95032	-159.57411	1217.28027	
133	1.320	-1167.03748	-159.77086	1217.32947	
134	1.330	-1166.98218	-159.77573	1217.23987	
135	1.340	-1166.86804	-159.99457	1217.39978	
136	1.350	-1166.73413	-160.24928	1217.47095	
137	1.360	-1166.64856	-160.55942	1217.62549	
138	1.370	-1166.38733	-160.90823	1217.43152	
139	1.380	-1166.26770	-161.20502	1217.42615	
140	1.390	-1166.30627	-161.56824	1217.49084	
141	1.400	-1166.34583	-162.16534	1217.91809	
142	1.410	-1166.44177	-162.51857	1217.79309	
143	1.420	-1166.42310	-163.45212	1217.75793	
144	1.430	-1166.35339	-163.54407	1217.79126	
145	1.440	-1166.13452	-163.74294	1217.84888	
146	1.450	-1166.02295	-164.03526	1217.80884	
147	1.460	-1166.32251	-164.97591	1218.01819	
148	1.470	-1166.39551	-165.51672	1218.13318	
149	1.480	-1166.21851	-166.05949	1218.14380	
150	1.490	-1166.29626	-166.31111	1218.30396	
151	1.500	-1166.31506	-167.09639	1218.14478	
152	1.510	-1166.64063	-168.29253	1218.11072	
153	1.520	-1166.81946	-169.25992	1218.08215	
154	1.530	-1167.02039	-170.72173	1218.35254	
155	1.540	-1167.24841	-172.77927	1218.41162	
156	1.550	-1167.27979	-173.97812	1218.31653	
157	1.560	-1167.35730	-175.43523	1218.35925	
158	1.570	-1167.25916	-177.19942	1218.57666	
159	1.580	-1167.52234	-179.58580	1218.81189	
160	1.590	-1167.41577	-180.86449	1218.79871	
161	1.600	-1168.23853	-183.14545	1219.16626	
162	1.610	-1168.31519	-184.41873	1219.14966	
163	1.620	-1168.63831	-186.49141	1219.16443	
164	1.630	-1168.86023	-188.17314	1219.37244	
165	1.640	-1169.04004	-189.92120	1219.47791	
166	1.650	-1169.29541	-191.28978	1219.52795	
167	1.660	-1169.49353	-193.23564	1219.77002	
168	1.670	-1169.70398	-194.79602	1219.83191	
169	1.680	-1170.01111	-196.82318	1220.03223	
170	1.690	-1170.26953	-198.16833	1219.97571	
171	1.700	-1170.83752	-200.44662	1220.10986	
172	1.710	-1171.30115	-202.15265	1219.97876	
173	1.720	-1171.75793	-204.13211	1219.80432	
174	1.730	-1172.10413	-205.89781	1219.91187	
175	1.740	-1172.78528	-207.96822	1219.91492	
176	1.750	-1173.25647	-209.90709	1219.63806	
177	1.760	-1173.32043	-211.43158	1219.61108	
178	1.770	-1173.85559	-213.94106	1219.94470	
179	1.780	-1173.44727	-215.05440	1219.78320	
180	1.790	-1173.50635	-216.80063	1219.97461	
181	1.800	-1173.33130	-217.82381	1219.98438	
182	1.810	-1173.32251	-219.07851	1219.95715	
183	1.820	-1173.58508	-221.31291	1220.38171	
184	1.830	-1174.05151	-222.93977	1220.33533	
185	1.840	-1174.24243	-225.01001	1220.27698	
186	1.850	-1174.23157	-226.46075	1220.23486	
187	1.860	-1174.73376	-228.38173	1220.17627	
188	1.870	-1174.82019	-230.01686	1220.12634	
189	1.880	-1174.93079	-231.68040	1220.37146	
190	1.890	-1174.93213	-233.35072	1220.47241	
191	1.900	-1174.84448	-235.31210	1220.46802	
192	1.910	-1174.49854	-237.33090	1220.13269	
193	1.920	-1174.53052	-238.81715	1219.91077	
194	1.930	-1174.43420	-240.33388	1220.14673	
195	1.940	-1174.71155	-242.03020	1220.14966	
196	1.950	-1174.80383	-243.58197	1220.11230	
197	1.960	-1174.43274	-244.98354	1220.19080	
198	1.970	-1174.46387	-246.63945	1220.29895	
199	1.980	-1173.31958	-247.93790	1220.13965	
200	1.990	-1173.03442	-249.63420	1220.04175	
201	2.000	-1172.94580	-251.16560	1220.14490	
202	2.010	-1173.02173	-252.45149	1219.89478	
203	2.020	-1173.16589	-253.50108	1219.76819	
204	2.030	-1173.03101	-255.01460	1220.01843	
205	2.040	-1173.38489	-256.43024	1220.46375	
206	2.050	-1173.15332	-257.61124	1220.20593	
207	2.060	-1173.29602	-258.72757	1220.25024	
208	2.070	-1173.26770	-259.70538	1220.19043	
209	2.080	-1173.46387	-261.01154	1220.01123	
210	2.090	-1173.53821	-261.82764	1220.06335	
211	2.100	-1174.11816	-263.42328	1220.26880	
212	2.110	-1174.36169	-264.05536	1220.18665	
213	2.120	-1174.73828	-265.05688	1220.44299	
214	2.130	-1175.05884	-266.17661	1220.37463	
215	2.140	-1175.35034	-267.34073	1220.37866	
216	2.150	-1175.40649	-268.04367	1220.30823	
217	2.160	-1175.01050	-269.86935	1220.35706	
218	2.170	-1175.04895	-270.38477	1219.95935	
219	2.180	-1175.54309	-271.29764	1219.98206	
220	2.190	-1175.57397	-272.42599	1219.86292	
221	2.200	-1176.58240	-273.58890	1220.22339	
222	2.210	-1176.84619	-274.78085	1220.31787	
223	2.220	-1177.11072	-275.56277	1220.06897	
224	2.230	-1177.72778	-277.01526	1220.26367	
